%TF.GenerationSoftware,KiCad,Pcbnew,(5.1.10)-1*%
%TF.CreationDate,2021-07-06T22:18:49-04:00*%
%TF.ProjectId,dedBoard,64656442-6f61-4726-942e-6b696361645f,rev?*%
%TF.SameCoordinates,Original*%
%TF.FileFunction,Legend,Top*%
%TF.FilePolarity,Positive*%
%FSLAX46Y46*%
G04 Gerber Fmt 4.6, Leading zero omitted, Abs format (unit mm)*
G04 Created by KiCad (PCBNEW (5.1.10)-1) date 2021-07-06 22:18:49*
%MOMM*%
%LPD*%
G01*
G04 APERTURE LIST*
%ADD10C,0.120000*%
%ADD11C,0.200000*%
%ADD12C,0.150000*%
%ADD13C,0.254000*%
G04 APERTURE END LIST*
D10*
%TO.C,D42*%
X51841130Y-114109837D02*
G75*
G02*
X49759039Y-114110000I-1041130J1079837D01*
G01*
X51841130Y-111950163D02*
G75*
G03*
X49759039Y-111950000I-1041130J-1079837D01*
G01*
X52472335Y-114108608D02*
G75*
G02*
X49240000Y-114265516I-1672335J1078608D01*
G01*
X52472335Y-111951392D02*
G75*
G03*
X49240000Y-111794484I-1672335J-1078608D01*
G01*
X49240000Y-111794000D02*
X49240000Y-111950000D01*
X49240000Y-114110000D02*
X49240000Y-114266000D01*
%TO.C,D41*%
X134391130Y-73469837D02*
G75*
G02*
X132309039Y-73470000I-1041130J1079837D01*
G01*
X134391130Y-71310163D02*
G75*
G03*
X132309039Y-71310000I-1041130J-1079837D01*
G01*
X135022335Y-73468608D02*
G75*
G02*
X131790000Y-73625516I-1672335J1078608D01*
G01*
X135022335Y-71311392D02*
G75*
G03*
X131790000Y-71154484I-1672335J-1078608D01*
G01*
X131790000Y-71154000D02*
X131790000Y-71310000D01*
X131790000Y-73470000D02*
X131790000Y-73626000D01*
%TO.C,D40*%
X112801130Y-112839837D02*
G75*
G02*
X110719039Y-112840000I-1041130J1079837D01*
G01*
X112801130Y-110680163D02*
G75*
G03*
X110719039Y-110680000I-1041130J-1079837D01*
G01*
X113432335Y-112838608D02*
G75*
G02*
X110200000Y-112995516I-1672335J1078608D01*
G01*
X113432335Y-110681392D02*
G75*
G03*
X110200000Y-110524484I-1672335J-1078608D01*
G01*
X110200000Y-110524000D02*
X110200000Y-110680000D01*
X110200000Y-112840000D02*
X110200000Y-112996000D01*
%TO.C,D39*%
X65811130Y-70929837D02*
G75*
G02*
X63729039Y-70930000I-1041130J1079837D01*
G01*
X65811130Y-68770163D02*
G75*
G03*
X63729039Y-68770000I-1041130J-1079837D01*
G01*
X66442335Y-70928608D02*
G75*
G02*
X63210000Y-71085516I-1672335J1078608D01*
G01*
X66442335Y-68771392D02*
G75*
G03*
X63210000Y-68614484I-1672335J-1078608D01*
G01*
X63210000Y-68614000D02*
X63210000Y-68770000D01*
X63210000Y-70930000D02*
X63210000Y-71086000D01*
%TO.C,D38*%
X86131130Y-70929837D02*
G75*
G02*
X84049039Y-70930000I-1041130J1079837D01*
G01*
X86131130Y-68770163D02*
G75*
G03*
X84049039Y-68770000I-1041130J-1079837D01*
G01*
X86762335Y-70928608D02*
G75*
G02*
X83530000Y-71085516I-1672335J1078608D01*
G01*
X86762335Y-68771392D02*
G75*
G03*
X83530000Y-68614484I-1672335J-1078608D01*
G01*
X83530000Y-68614000D02*
X83530000Y-68770000D01*
X83530000Y-70930000D02*
X83530000Y-71086000D01*
%TO.C,D37*%
X87401130Y-93789837D02*
G75*
G02*
X85319039Y-93790000I-1041130J1079837D01*
G01*
X87401130Y-91630163D02*
G75*
G03*
X85319039Y-91630000I-1041130J-1079837D01*
G01*
X88032335Y-93788608D02*
G75*
G02*
X84800000Y-93945516I-1672335J1078608D01*
G01*
X88032335Y-91631392D02*
G75*
G03*
X84800000Y-91474484I-1672335J-1078608D01*
G01*
X84800000Y-91474000D02*
X84800000Y-91630000D01*
X84800000Y-93790000D02*
X84800000Y-93946000D01*
%TO.C,D36*%
X51841130Y-97599837D02*
G75*
G02*
X49759039Y-97600000I-1041130J1079837D01*
G01*
X51841130Y-95440163D02*
G75*
G03*
X49759039Y-95440000I-1041130J-1079837D01*
G01*
X52472335Y-97598608D02*
G75*
G02*
X49240000Y-97755516I-1672335J1078608D01*
G01*
X52472335Y-95441392D02*
G75*
G03*
X49240000Y-95284484I-1672335J-1078608D01*
G01*
X49240000Y-95284000D02*
X49240000Y-95440000D01*
X49240000Y-97600000D02*
X49240000Y-97756000D01*
%TO.C,D35*%
X49301130Y-70929837D02*
G75*
G02*
X47219039Y-70930000I-1041130J1079837D01*
G01*
X49301130Y-68770163D02*
G75*
G03*
X47219039Y-68770000I-1041130J-1079837D01*
G01*
X49932335Y-70928608D02*
G75*
G02*
X46700000Y-71085516I-1672335J1078608D01*
G01*
X49932335Y-68771392D02*
G75*
G03*
X46700000Y-68614484I-1672335J-1078608D01*
G01*
X46700000Y-68614000D02*
X46700000Y-68770000D01*
X46700000Y-70930000D02*
X46700000Y-71086000D01*
%TO.C,D34*%
X112801130Y-73469837D02*
G75*
G02*
X110719039Y-73470000I-1041130J1079837D01*
G01*
X112801130Y-71310163D02*
G75*
G03*
X110719039Y-71310000I-1041130J-1079837D01*
G01*
X113432335Y-73468608D02*
G75*
G02*
X110200000Y-73625516I-1672335J1078608D01*
G01*
X113432335Y-71311392D02*
G75*
G03*
X110200000Y-71154484I-1672335J-1078608D01*
G01*
X110200000Y-71154000D02*
X110200000Y-71310000D01*
X110200000Y-73470000D02*
X110200000Y-73626000D01*
D11*
%TO.C,S23*%
X139288000Y-74010000D02*
X151288000Y-74010000D01*
X151288000Y-86010000D02*
X139288000Y-86010000D01*
X137676650Y-77472000D02*
G75*
G03*
X137676650Y-77472000I-84650J0D01*
G01*
%TO.C,S22*%
X119412500Y-11145000D02*
X131412500Y-11145000D01*
X131412500Y-23145000D02*
X119412500Y-23145000D01*
X117801150Y-14607000D02*
G75*
G03*
X117801150Y-14607000I-84650J0D01*
G01*
%TO.C,S21*%
X97187500Y-11145000D02*
X109187500Y-11145000D01*
X109187500Y-23145000D02*
X97187500Y-23145000D01*
X95576150Y-14607000D02*
G75*
G03*
X95576150Y-14607000I-84650J0D01*
G01*
%TO.C,S20*%
X74962500Y-11145000D02*
X86962500Y-11145000D01*
X86962500Y-23145000D02*
X74962500Y-23145000D01*
X73351150Y-14607000D02*
G75*
G03*
X73351150Y-14607000I-84650J0D01*
G01*
%TO.C,S19*%
X52737500Y-11145000D02*
X64737500Y-11145000D01*
X64737500Y-23145000D02*
X52737500Y-23145000D01*
X51126150Y-14607000D02*
G75*
G03*
X51126150Y-14607000I-84650J0D01*
G01*
%TO.C,S18*%
X30512500Y-11145000D02*
X42512500Y-11145000D01*
X42512500Y-23145000D02*
X30512500Y-23145000D01*
X28901150Y-14607000D02*
G75*
G03*
X28901150Y-14607000I-84650J0D01*
G01*
%TO.C,S17*%
X97163650Y-57787000D02*
G75*
G03*
X97163650Y-57787000I-84650J0D01*
G01*
X110775000Y-66325000D02*
X98775000Y-66325000D01*
X98775000Y-54325000D02*
X110775000Y-54325000D01*
%TO.C,S16*%
X97163650Y-38737000D02*
G75*
G03*
X97163650Y-38737000I-84650J0D01*
G01*
X110775000Y-47275000D02*
X98775000Y-47275000D01*
X98775000Y-35275000D02*
X110775000Y-35275000D01*
%TO.C,S15*%
X68588650Y-57787000D02*
G75*
G03*
X68588650Y-57787000I-84650J0D01*
G01*
X82200000Y-66325000D02*
X70200000Y-66325000D01*
X70200000Y-54325000D02*
X82200000Y-54325000D01*
%TO.C,S14*%
X68588650Y-76837000D02*
G75*
G03*
X68588650Y-76837000I-84650J0D01*
G01*
X82200000Y-85375000D02*
X70200000Y-85375000D01*
X70200000Y-73375000D02*
X82200000Y-73375000D01*
%TO.C,S13*%
X68588650Y-38737000D02*
G75*
G03*
X68588650Y-38737000I-84650J0D01*
G01*
X82200000Y-47275000D02*
X70200000Y-47275000D01*
X70200000Y-35275000D02*
X82200000Y-35275000D01*
%TO.C,S12*%
X87638650Y-76837000D02*
G75*
G03*
X87638650Y-76837000I-84650J0D01*
G01*
X101250000Y-85375000D02*
X89250000Y-85375000D01*
X89250000Y-73375000D02*
X101250000Y-73375000D01*
%TO.C,S11*%
X137676650Y-63502000D02*
G75*
G03*
X137676650Y-63502000I-84650J0D01*
G01*
X151288000Y-72040000D02*
X139288000Y-72040000D01*
X139288000Y-60040000D02*
X151288000Y-60040000D01*
%TO.C,S10*%
X49538650Y-57787000D02*
G75*
G03*
X49538650Y-57787000I-84650J0D01*
G01*
X63150000Y-66325000D02*
X51150000Y-66325000D01*
X51150000Y-54325000D02*
X63150000Y-54325000D01*
%TO.C,S9*%
X137676650Y-45087000D02*
G75*
G03*
X137676650Y-45087000I-84650J0D01*
G01*
X151288000Y-53625000D02*
X139288000Y-53625000D01*
X139288000Y-41625000D02*
X151288000Y-41625000D01*
%TO.C,S8*%
X49538650Y-76837000D02*
G75*
G03*
X49538650Y-76837000I-84650J0D01*
G01*
X63150000Y-85375000D02*
X51150000Y-85375000D01*
X51150000Y-73375000D02*
X63150000Y-73375000D01*
%TO.C,S7*%
X49538650Y-38737000D02*
G75*
G03*
X49538650Y-38737000I-84650J0D01*
G01*
X63150000Y-47275000D02*
X51150000Y-47275000D01*
X51150000Y-35275000D02*
X63150000Y-35275000D01*
%TO.C,S6*%
X30488650Y-112397000D02*
G75*
G03*
X30488650Y-112397000I-84650J0D01*
G01*
X44100000Y-120935000D02*
X32100000Y-120935000D01*
X32100000Y-108935000D02*
X44100000Y-108935000D01*
%TO.C,S5*%
X30488650Y-57787000D02*
G75*
G03*
X30488650Y-57787000I-84650J0D01*
G01*
X44100000Y-66325000D02*
X32100000Y-66325000D01*
X32100000Y-54325000D02*
X44100000Y-54325000D01*
%TO.C,S4*%
X30488650Y-76837000D02*
G75*
G03*
X30488650Y-76837000I-84650J0D01*
G01*
X44100000Y-85375000D02*
X32100000Y-85375000D01*
X32100000Y-73375000D02*
X44100000Y-73375000D01*
%TO.C,S3*%
X30488650Y-38737000D02*
G75*
G03*
X30488650Y-38737000I-84650J0D01*
G01*
X44100000Y-47275000D02*
X32100000Y-47275000D01*
X32100000Y-35275000D02*
X44100000Y-35275000D01*
%TO.C,S2*%
X30488650Y-98427000D02*
G75*
G03*
X30488650Y-98427000I-84650J0D01*
G01*
X44100000Y-106965000D02*
X32100000Y-106965000D01*
X32100000Y-94965000D02*
X44100000Y-94965000D01*
%TO.C,S1*%
X140026150Y-14607000D02*
G75*
G03*
X140026150Y-14607000I-84650J0D01*
G01*
X153637500Y-23145000D02*
X141637500Y-23145000D01*
X141637500Y-11145000D02*
X153637500Y-11145000D01*
D10*
%TO.C,D27*%
X131790000Y-58230000D02*
X131790000Y-58386000D01*
X131790000Y-55914000D02*
X131790000Y-56070000D01*
X134391130Y-58229837D02*
G75*
G02*
X132309039Y-58230000I-1041130J1079837D01*
G01*
X134391130Y-56070163D02*
G75*
G03*
X132309039Y-56070000I-1041130J-1079837D01*
G01*
X135022335Y-58228608D02*
G75*
G02*
X131790000Y-58385516I-1672335J1078608D01*
G01*
X135022335Y-56071392D02*
G75*
G03*
X131790000Y-55914484I-1672335J-1078608D01*
G01*
%TO.C,D26*%
X65750000Y-51880000D02*
X65750000Y-52036000D01*
X65750000Y-49564000D02*
X65750000Y-49720000D01*
X68351130Y-51879837D02*
G75*
G02*
X66269039Y-51880000I-1041130J1079837D01*
G01*
X68351130Y-49720163D02*
G75*
G03*
X66269039Y-49720000I-1041130J-1079837D01*
G01*
X68982335Y-51878608D02*
G75*
G02*
X65750000Y-52035516I-1672335J1078608D01*
G01*
X68982335Y-49721392D02*
G75*
G03*
X65750000Y-49564484I-1672335J-1078608D01*
G01*
%TO.C,D25*%
X110200000Y-29020000D02*
X110200000Y-29176000D01*
X110200000Y-26704000D02*
X110200000Y-26860000D01*
X112801130Y-29019837D02*
G75*
G02*
X110719039Y-29020000I-1041130J1079837D01*
G01*
X112801130Y-26860163D02*
G75*
G03*
X110719039Y-26860000I-1041130J-1079837D01*
G01*
X113432335Y-29018608D02*
G75*
G02*
X110200000Y-29175516I-1672335J1078608D01*
G01*
X113432335Y-26861392D02*
G75*
G03*
X110200000Y-26704484I-1672335J-1078608D01*
G01*
%TO.C,D24*%
X89880000Y-51880000D02*
X89880000Y-52036000D01*
X89880000Y-49564000D02*
X89880000Y-49720000D01*
X92481130Y-51879837D02*
G75*
G02*
X90399039Y-51880000I-1041130J1079837D01*
G01*
X92481130Y-49720163D02*
G75*
G03*
X90399039Y-49720000I-1041130J-1079837D01*
G01*
X93112335Y-51878608D02*
G75*
G02*
X89880000Y-52035516I-1672335J1078608D01*
G01*
X93112335Y-49721392D02*
G75*
G03*
X89880000Y-49564484I-1672335J-1078608D01*
G01*
%TO.C,D23*%
X115280000Y-51880000D02*
X115280000Y-52036000D01*
X115280000Y-49564000D02*
X115280000Y-49720000D01*
X117881130Y-51879837D02*
G75*
G02*
X115799039Y-51880000I-1041130J1079837D01*
G01*
X117881130Y-49720163D02*
G75*
G03*
X115799039Y-49720000I-1041130J-1079837D01*
G01*
X118512335Y-51878608D02*
G75*
G02*
X115280000Y-52035516I-1672335J1078608D01*
G01*
X118512335Y-49721392D02*
G75*
G03*
X115280000Y-49564484I-1672335J-1078608D01*
G01*
%TO.C,D22*%
X46700000Y-51880000D02*
X46700000Y-52036000D01*
X46700000Y-49564000D02*
X46700000Y-49720000D01*
X49301130Y-51879837D02*
G75*
G02*
X47219039Y-51880000I-1041130J1079837D01*
G01*
X49301130Y-49720163D02*
G75*
G03*
X47219039Y-49720000I-1041130J-1079837D01*
G01*
X49932335Y-51878608D02*
G75*
G02*
X46700000Y-52035516I-1672335J1078608D01*
G01*
X49932335Y-49721392D02*
G75*
G03*
X46700000Y-49564484I-1672335J-1078608D01*
G01*
%TO.C,D21*%
X135600000Y-29020000D02*
X135600000Y-29176000D01*
X135600000Y-26704000D02*
X135600000Y-26860000D01*
X138201130Y-29019837D02*
G75*
G02*
X136119039Y-29020000I-1041130J1079837D01*
G01*
X138201130Y-26860163D02*
G75*
G03*
X136119039Y-26860000I-1041130J-1079837D01*
G01*
X138832335Y-29018608D02*
G75*
G02*
X135600000Y-29175516I-1672335J1078608D01*
G01*
X138832335Y-26861392D02*
G75*
G03*
X135600000Y-26704484I-1672335J-1078608D01*
G01*
%TO.C,D20*%
X89880000Y-29020000D02*
X89880000Y-29176000D01*
X89880000Y-26704000D02*
X89880000Y-26860000D01*
X92481130Y-29019837D02*
G75*
G02*
X90399039Y-29020000I-1041130J1079837D01*
G01*
X92481130Y-26860163D02*
G75*
G03*
X90399039Y-26860000I-1041130J-1079837D01*
G01*
X93112335Y-29018608D02*
G75*
G02*
X89880000Y-29175516I-1672335J1078608D01*
G01*
X93112335Y-26861392D02*
G75*
G03*
X89880000Y-26704484I-1672335J-1078608D01*
G01*
%TO.C,D19*%
X70140000Y-26860000D02*
X70140000Y-26704000D01*
X70140000Y-29176000D02*
X70140000Y-29020000D01*
X67538870Y-26860163D02*
G75*
G02*
X69620961Y-26860000I1041130J-1079837D01*
G01*
X67538870Y-29019837D02*
G75*
G03*
X69620961Y-29020000I1041130J1079837D01*
G01*
X66907665Y-26861392D02*
G75*
G02*
X70140000Y-26704484I1672335J-1078608D01*
G01*
X66907665Y-29018608D02*
G75*
G03*
X70140000Y-29175516I1672335J1078608D01*
G01*
%TO.C,D18*%
X46700000Y-29020000D02*
X46700000Y-29176000D01*
X46700000Y-26704000D02*
X46700000Y-26860000D01*
X49301130Y-29019837D02*
G75*
G02*
X47219039Y-29020000I-1041130J1079837D01*
G01*
X49301130Y-26860163D02*
G75*
G03*
X47219039Y-26860000I-1041130J-1079837D01*
G01*
X49932335Y-29018608D02*
G75*
G02*
X46700000Y-29175516I-1672335J1078608D01*
G01*
X49932335Y-26861392D02*
G75*
G03*
X46700000Y-26704484I-1672335J-1078608D01*
G01*
%TO.C,REF\u002A\u002A*%
D12*
X160591666Y-12127380D02*
X160258333Y-11651190D01*
X160020238Y-12127380D02*
X160020238Y-11127380D01*
X160401190Y-11127380D01*
X160496428Y-11175000D01*
X160544047Y-11222619D01*
X160591666Y-11317857D01*
X160591666Y-11460714D01*
X160544047Y-11555952D01*
X160496428Y-11603571D01*
X160401190Y-11651190D01*
X160020238Y-11651190D01*
X161020238Y-11603571D02*
X161353571Y-11603571D01*
X161496428Y-12127380D02*
X161020238Y-12127380D01*
X161020238Y-11127380D01*
X161496428Y-11127380D01*
X162258333Y-11603571D02*
X161925000Y-11603571D01*
X161925000Y-12127380D02*
X161925000Y-11127380D01*
X162401190Y-11127380D01*
X162925000Y-11127380D02*
X162925000Y-11365476D01*
X162686904Y-11270238D02*
X162925000Y-11365476D01*
X163163095Y-11270238D01*
X162782142Y-11555952D02*
X162925000Y-11365476D01*
X163067857Y-11555952D01*
X163686904Y-11127380D02*
X163686904Y-11365476D01*
X163448809Y-11270238D02*
X163686904Y-11365476D01*
X163925000Y-11270238D01*
X163544047Y-11555952D02*
X163686904Y-11365476D01*
X163829761Y-11555952D01*
X160591666Y-113727380D02*
X160258333Y-113251190D01*
X160020238Y-113727380D02*
X160020238Y-112727380D01*
X160401190Y-112727380D01*
X160496428Y-112775000D01*
X160544047Y-112822619D01*
X160591666Y-112917857D01*
X160591666Y-113060714D01*
X160544047Y-113155952D01*
X160496428Y-113203571D01*
X160401190Y-113251190D01*
X160020238Y-113251190D01*
X161020238Y-113203571D02*
X161353571Y-113203571D01*
X161496428Y-113727380D02*
X161020238Y-113727380D01*
X161020238Y-112727380D01*
X161496428Y-112727380D01*
X162258333Y-113203571D02*
X161925000Y-113203571D01*
X161925000Y-113727380D02*
X161925000Y-112727380D01*
X162401190Y-112727380D01*
X162925000Y-112727380D02*
X162925000Y-112965476D01*
X162686904Y-112870238D02*
X162925000Y-112965476D01*
X163163095Y-112870238D01*
X162782142Y-113155952D02*
X162925000Y-112965476D01*
X163067857Y-113155952D01*
X163686904Y-112727380D02*
X163686904Y-112965476D01*
X163448809Y-112870238D02*
X163686904Y-112965476D01*
X163925000Y-112870238D01*
X163544047Y-113155952D02*
X163686904Y-112965476D01*
X163829761Y-113155952D01*
X90741666Y-62927380D02*
X90408333Y-62451190D01*
X90170238Y-62927380D02*
X90170238Y-61927380D01*
X90551190Y-61927380D01*
X90646428Y-61975000D01*
X90694047Y-62022619D01*
X90741666Y-62117857D01*
X90741666Y-62260714D01*
X90694047Y-62355952D01*
X90646428Y-62403571D01*
X90551190Y-62451190D01*
X90170238Y-62451190D01*
X91170238Y-62403571D02*
X91503571Y-62403571D01*
X91646428Y-62927380D02*
X91170238Y-62927380D01*
X91170238Y-61927380D01*
X91646428Y-61927380D01*
X92408333Y-62403571D02*
X92075000Y-62403571D01*
X92075000Y-62927380D02*
X92075000Y-61927380D01*
X92551190Y-61927380D01*
X93075000Y-61927380D02*
X93075000Y-62165476D01*
X92836904Y-62070238D02*
X93075000Y-62165476D01*
X93313095Y-62070238D01*
X92932142Y-62355952D02*
X93075000Y-62165476D01*
X93217857Y-62355952D01*
X93836904Y-61927380D02*
X93836904Y-62165476D01*
X93598809Y-62070238D02*
X93836904Y-62165476D01*
X94075000Y-62070238D01*
X93694047Y-62355952D02*
X93836904Y-62165476D01*
X93979761Y-62355952D01*
X20891666Y-113727380D02*
X20558333Y-113251190D01*
X20320238Y-113727380D02*
X20320238Y-112727380D01*
X20701190Y-112727380D01*
X20796428Y-112775000D01*
X20844047Y-112822619D01*
X20891666Y-112917857D01*
X20891666Y-113060714D01*
X20844047Y-113155952D01*
X20796428Y-113203571D01*
X20701190Y-113251190D01*
X20320238Y-113251190D01*
X21320238Y-113203571D02*
X21653571Y-113203571D01*
X21796428Y-113727380D02*
X21320238Y-113727380D01*
X21320238Y-112727380D01*
X21796428Y-112727380D01*
X22558333Y-113203571D02*
X22225000Y-113203571D01*
X22225000Y-113727380D02*
X22225000Y-112727380D01*
X22701190Y-112727380D01*
X23225000Y-112727380D02*
X23225000Y-112965476D01*
X22986904Y-112870238D02*
X23225000Y-112965476D01*
X23463095Y-112870238D01*
X23082142Y-113155952D02*
X23225000Y-112965476D01*
X23367857Y-113155952D01*
X23986904Y-112727380D02*
X23986904Y-112965476D01*
X23748809Y-112870238D02*
X23986904Y-112965476D01*
X24225000Y-112870238D01*
X23844047Y-113155952D02*
X23986904Y-112965476D01*
X24129761Y-113155952D01*
X20891666Y-62927380D02*
X20558333Y-62451190D01*
X20320238Y-62927380D02*
X20320238Y-61927380D01*
X20701190Y-61927380D01*
X20796428Y-61975000D01*
X20844047Y-62022619D01*
X20891666Y-62117857D01*
X20891666Y-62260714D01*
X20844047Y-62355952D01*
X20796428Y-62403571D01*
X20701190Y-62451190D01*
X20320238Y-62451190D01*
X21320238Y-62403571D02*
X21653571Y-62403571D01*
X21796428Y-62927380D02*
X21320238Y-62927380D01*
X21320238Y-61927380D01*
X21796428Y-61927380D01*
X22558333Y-62403571D02*
X22225000Y-62403571D01*
X22225000Y-62927380D02*
X22225000Y-61927380D01*
X22701190Y-61927380D01*
X23225000Y-61927380D02*
X23225000Y-62165476D01*
X22986904Y-62070238D02*
X23225000Y-62165476D01*
X23463095Y-62070238D01*
X23082142Y-62355952D02*
X23225000Y-62165476D01*
X23367857Y-62355952D01*
X23986904Y-61927380D02*
X23986904Y-62165476D01*
X23748809Y-62070238D02*
X23986904Y-62165476D01*
X24225000Y-62070238D01*
X23844047Y-62355952D02*
X23986904Y-62165476D01*
X24129761Y-62355952D01*
X20891666Y-12127380D02*
X20558333Y-11651190D01*
X20320238Y-12127380D02*
X20320238Y-11127380D01*
X20701190Y-11127380D01*
X20796428Y-11175000D01*
X20844047Y-11222619D01*
X20891666Y-11317857D01*
X20891666Y-11460714D01*
X20844047Y-11555952D01*
X20796428Y-11603571D01*
X20701190Y-11651190D01*
X20320238Y-11651190D01*
X21320238Y-11603571D02*
X21653571Y-11603571D01*
X21796428Y-12127380D02*
X21320238Y-12127380D01*
X21320238Y-11127380D01*
X21796428Y-11127380D01*
X22558333Y-11603571D02*
X22225000Y-11603571D01*
X22225000Y-12127380D02*
X22225000Y-11127380D01*
X22701190Y-11127380D01*
X23225000Y-11127380D02*
X23225000Y-11365476D01*
X22986904Y-11270238D02*
X23225000Y-11365476D01*
X23463095Y-11270238D01*
X23082142Y-11555952D02*
X23225000Y-11365476D01*
X23367857Y-11555952D01*
X23986904Y-11127380D02*
X23986904Y-11365476D01*
X23748809Y-11270238D02*
X23986904Y-11365476D01*
X24225000Y-11270238D01*
X23844047Y-11555952D02*
X23986904Y-11365476D01*
X24129761Y-11555952D01*
%TO.C,D42*%
X49585714Y-110522380D02*
X49585714Y-109522380D01*
X49823809Y-109522380D01*
X49966666Y-109570000D01*
X50061904Y-109665238D01*
X50109523Y-109760476D01*
X50157142Y-109950952D01*
X50157142Y-110093809D01*
X50109523Y-110284285D01*
X50061904Y-110379523D01*
X49966666Y-110474761D01*
X49823809Y-110522380D01*
X49585714Y-110522380D01*
X51014285Y-109855714D02*
X51014285Y-110522380D01*
X50776190Y-109474761D02*
X50538095Y-110189047D01*
X51157142Y-110189047D01*
X51490476Y-109617619D02*
X51538095Y-109570000D01*
X51633333Y-109522380D01*
X51871428Y-109522380D01*
X51966666Y-109570000D01*
X52014285Y-109617619D01*
X52061904Y-109712857D01*
X52061904Y-109808095D01*
X52014285Y-109950952D01*
X51442857Y-110522380D01*
X52061904Y-110522380D01*
%TO.C,D41*%
X132135714Y-69882380D02*
X132135714Y-68882380D01*
X132373809Y-68882380D01*
X132516666Y-68930000D01*
X132611904Y-69025238D01*
X132659523Y-69120476D01*
X132707142Y-69310952D01*
X132707142Y-69453809D01*
X132659523Y-69644285D01*
X132611904Y-69739523D01*
X132516666Y-69834761D01*
X132373809Y-69882380D01*
X132135714Y-69882380D01*
X133564285Y-69215714D02*
X133564285Y-69882380D01*
X133326190Y-68834761D02*
X133088095Y-69549047D01*
X133707142Y-69549047D01*
X134611904Y-69882380D02*
X134040476Y-69882380D01*
X134326190Y-69882380D02*
X134326190Y-68882380D01*
X134230952Y-69025238D01*
X134135714Y-69120476D01*
X134040476Y-69168095D01*
%TO.C,D40*%
X110545714Y-109252380D02*
X110545714Y-108252380D01*
X110783809Y-108252380D01*
X110926666Y-108300000D01*
X111021904Y-108395238D01*
X111069523Y-108490476D01*
X111117142Y-108680952D01*
X111117142Y-108823809D01*
X111069523Y-109014285D01*
X111021904Y-109109523D01*
X110926666Y-109204761D01*
X110783809Y-109252380D01*
X110545714Y-109252380D01*
X111974285Y-108585714D02*
X111974285Y-109252380D01*
X111736190Y-108204761D02*
X111498095Y-108919047D01*
X112117142Y-108919047D01*
X112688571Y-108252380D02*
X112783809Y-108252380D01*
X112879047Y-108300000D01*
X112926666Y-108347619D01*
X112974285Y-108442857D01*
X113021904Y-108633333D01*
X113021904Y-108871428D01*
X112974285Y-109061904D01*
X112926666Y-109157142D01*
X112879047Y-109204761D01*
X112783809Y-109252380D01*
X112688571Y-109252380D01*
X112593333Y-109204761D01*
X112545714Y-109157142D01*
X112498095Y-109061904D01*
X112450476Y-108871428D01*
X112450476Y-108633333D01*
X112498095Y-108442857D01*
X112545714Y-108347619D01*
X112593333Y-108300000D01*
X112688571Y-108252380D01*
%TO.C,D39*%
X63555714Y-67342380D02*
X63555714Y-66342380D01*
X63793809Y-66342380D01*
X63936666Y-66390000D01*
X64031904Y-66485238D01*
X64079523Y-66580476D01*
X64127142Y-66770952D01*
X64127142Y-66913809D01*
X64079523Y-67104285D01*
X64031904Y-67199523D01*
X63936666Y-67294761D01*
X63793809Y-67342380D01*
X63555714Y-67342380D01*
X64460476Y-66342380D02*
X65079523Y-66342380D01*
X64746190Y-66723333D01*
X64889047Y-66723333D01*
X64984285Y-66770952D01*
X65031904Y-66818571D01*
X65079523Y-66913809D01*
X65079523Y-67151904D01*
X65031904Y-67247142D01*
X64984285Y-67294761D01*
X64889047Y-67342380D01*
X64603333Y-67342380D01*
X64508095Y-67294761D01*
X64460476Y-67247142D01*
X65555714Y-67342380D02*
X65746190Y-67342380D01*
X65841428Y-67294761D01*
X65889047Y-67247142D01*
X65984285Y-67104285D01*
X66031904Y-66913809D01*
X66031904Y-66532857D01*
X65984285Y-66437619D01*
X65936666Y-66390000D01*
X65841428Y-66342380D01*
X65650952Y-66342380D01*
X65555714Y-66390000D01*
X65508095Y-66437619D01*
X65460476Y-66532857D01*
X65460476Y-66770952D01*
X65508095Y-66866190D01*
X65555714Y-66913809D01*
X65650952Y-66961428D01*
X65841428Y-66961428D01*
X65936666Y-66913809D01*
X65984285Y-66866190D01*
X66031904Y-66770952D01*
%TO.C,D38*%
X83875714Y-67342380D02*
X83875714Y-66342380D01*
X84113809Y-66342380D01*
X84256666Y-66390000D01*
X84351904Y-66485238D01*
X84399523Y-66580476D01*
X84447142Y-66770952D01*
X84447142Y-66913809D01*
X84399523Y-67104285D01*
X84351904Y-67199523D01*
X84256666Y-67294761D01*
X84113809Y-67342380D01*
X83875714Y-67342380D01*
X84780476Y-66342380D02*
X85399523Y-66342380D01*
X85066190Y-66723333D01*
X85209047Y-66723333D01*
X85304285Y-66770952D01*
X85351904Y-66818571D01*
X85399523Y-66913809D01*
X85399523Y-67151904D01*
X85351904Y-67247142D01*
X85304285Y-67294761D01*
X85209047Y-67342380D01*
X84923333Y-67342380D01*
X84828095Y-67294761D01*
X84780476Y-67247142D01*
X85970952Y-66770952D02*
X85875714Y-66723333D01*
X85828095Y-66675714D01*
X85780476Y-66580476D01*
X85780476Y-66532857D01*
X85828095Y-66437619D01*
X85875714Y-66390000D01*
X85970952Y-66342380D01*
X86161428Y-66342380D01*
X86256666Y-66390000D01*
X86304285Y-66437619D01*
X86351904Y-66532857D01*
X86351904Y-66580476D01*
X86304285Y-66675714D01*
X86256666Y-66723333D01*
X86161428Y-66770952D01*
X85970952Y-66770952D01*
X85875714Y-66818571D01*
X85828095Y-66866190D01*
X85780476Y-66961428D01*
X85780476Y-67151904D01*
X85828095Y-67247142D01*
X85875714Y-67294761D01*
X85970952Y-67342380D01*
X86161428Y-67342380D01*
X86256666Y-67294761D01*
X86304285Y-67247142D01*
X86351904Y-67151904D01*
X86351904Y-66961428D01*
X86304285Y-66866190D01*
X86256666Y-66818571D01*
X86161428Y-66770952D01*
%TO.C,D37*%
X85145714Y-90202380D02*
X85145714Y-89202380D01*
X85383809Y-89202380D01*
X85526666Y-89250000D01*
X85621904Y-89345238D01*
X85669523Y-89440476D01*
X85717142Y-89630952D01*
X85717142Y-89773809D01*
X85669523Y-89964285D01*
X85621904Y-90059523D01*
X85526666Y-90154761D01*
X85383809Y-90202380D01*
X85145714Y-90202380D01*
X86050476Y-89202380D02*
X86669523Y-89202380D01*
X86336190Y-89583333D01*
X86479047Y-89583333D01*
X86574285Y-89630952D01*
X86621904Y-89678571D01*
X86669523Y-89773809D01*
X86669523Y-90011904D01*
X86621904Y-90107142D01*
X86574285Y-90154761D01*
X86479047Y-90202380D01*
X86193333Y-90202380D01*
X86098095Y-90154761D01*
X86050476Y-90107142D01*
X87002857Y-89202380D02*
X87669523Y-89202380D01*
X87240952Y-90202380D01*
%TO.C,D36*%
X49585714Y-94012380D02*
X49585714Y-93012380D01*
X49823809Y-93012380D01*
X49966666Y-93060000D01*
X50061904Y-93155238D01*
X50109523Y-93250476D01*
X50157142Y-93440952D01*
X50157142Y-93583809D01*
X50109523Y-93774285D01*
X50061904Y-93869523D01*
X49966666Y-93964761D01*
X49823809Y-94012380D01*
X49585714Y-94012380D01*
X50490476Y-93012380D02*
X51109523Y-93012380D01*
X50776190Y-93393333D01*
X50919047Y-93393333D01*
X51014285Y-93440952D01*
X51061904Y-93488571D01*
X51109523Y-93583809D01*
X51109523Y-93821904D01*
X51061904Y-93917142D01*
X51014285Y-93964761D01*
X50919047Y-94012380D01*
X50633333Y-94012380D01*
X50538095Y-93964761D01*
X50490476Y-93917142D01*
X51966666Y-93012380D02*
X51776190Y-93012380D01*
X51680952Y-93060000D01*
X51633333Y-93107619D01*
X51538095Y-93250476D01*
X51490476Y-93440952D01*
X51490476Y-93821904D01*
X51538095Y-93917142D01*
X51585714Y-93964761D01*
X51680952Y-94012380D01*
X51871428Y-94012380D01*
X51966666Y-93964761D01*
X52014285Y-93917142D01*
X52061904Y-93821904D01*
X52061904Y-93583809D01*
X52014285Y-93488571D01*
X51966666Y-93440952D01*
X51871428Y-93393333D01*
X51680952Y-93393333D01*
X51585714Y-93440952D01*
X51538095Y-93488571D01*
X51490476Y-93583809D01*
%TO.C,D35*%
X47045714Y-67342380D02*
X47045714Y-66342380D01*
X47283809Y-66342380D01*
X47426666Y-66390000D01*
X47521904Y-66485238D01*
X47569523Y-66580476D01*
X47617142Y-66770952D01*
X47617142Y-66913809D01*
X47569523Y-67104285D01*
X47521904Y-67199523D01*
X47426666Y-67294761D01*
X47283809Y-67342380D01*
X47045714Y-67342380D01*
X47950476Y-66342380D02*
X48569523Y-66342380D01*
X48236190Y-66723333D01*
X48379047Y-66723333D01*
X48474285Y-66770952D01*
X48521904Y-66818571D01*
X48569523Y-66913809D01*
X48569523Y-67151904D01*
X48521904Y-67247142D01*
X48474285Y-67294761D01*
X48379047Y-67342380D01*
X48093333Y-67342380D01*
X47998095Y-67294761D01*
X47950476Y-67247142D01*
X49474285Y-66342380D02*
X48998095Y-66342380D01*
X48950476Y-66818571D01*
X48998095Y-66770952D01*
X49093333Y-66723333D01*
X49331428Y-66723333D01*
X49426666Y-66770952D01*
X49474285Y-66818571D01*
X49521904Y-66913809D01*
X49521904Y-67151904D01*
X49474285Y-67247142D01*
X49426666Y-67294761D01*
X49331428Y-67342380D01*
X49093333Y-67342380D01*
X48998095Y-67294761D01*
X48950476Y-67247142D01*
%TO.C,D34*%
X110545714Y-69882380D02*
X110545714Y-68882380D01*
X110783809Y-68882380D01*
X110926666Y-68930000D01*
X111021904Y-69025238D01*
X111069523Y-69120476D01*
X111117142Y-69310952D01*
X111117142Y-69453809D01*
X111069523Y-69644285D01*
X111021904Y-69739523D01*
X110926666Y-69834761D01*
X110783809Y-69882380D01*
X110545714Y-69882380D01*
X111450476Y-68882380D02*
X112069523Y-68882380D01*
X111736190Y-69263333D01*
X111879047Y-69263333D01*
X111974285Y-69310952D01*
X112021904Y-69358571D01*
X112069523Y-69453809D01*
X112069523Y-69691904D01*
X112021904Y-69787142D01*
X111974285Y-69834761D01*
X111879047Y-69882380D01*
X111593333Y-69882380D01*
X111498095Y-69834761D01*
X111450476Y-69787142D01*
X112926666Y-69215714D02*
X112926666Y-69882380D01*
X112688571Y-68834761D02*
X112450476Y-69549047D01*
X113069523Y-69549047D01*
%TO.C,S23*%
D13*
X143381619Y-80467047D02*
X143563047Y-80527523D01*
X143865428Y-80527523D01*
X143986380Y-80467047D01*
X144046857Y-80406571D01*
X144107333Y-80285619D01*
X144107333Y-80164666D01*
X144046857Y-80043714D01*
X143986380Y-79983238D01*
X143865428Y-79922761D01*
X143623523Y-79862285D01*
X143502571Y-79801809D01*
X143442095Y-79741333D01*
X143381619Y-79620380D01*
X143381619Y-79499428D01*
X143442095Y-79378476D01*
X143502571Y-79318000D01*
X143623523Y-79257523D01*
X143925904Y-79257523D01*
X144107333Y-79318000D01*
X144591142Y-79378476D02*
X144651619Y-79318000D01*
X144772571Y-79257523D01*
X145074952Y-79257523D01*
X145195904Y-79318000D01*
X145256380Y-79378476D01*
X145316857Y-79499428D01*
X145316857Y-79620380D01*
X145256380Y-79801809D01*
X144530666Y-80527523D01*
X145316857Y-80527523D01*
X145740190Y-79257523D02*
X146526380Y-79257523D01*
X146103047Y-79741333D01*
X146284476Y-79741333D01*
X146405428Y-79801809D01*
X146465904Y-79862285D01*
X146526380Y-79983238D01*
X146526380Y-80285619D01*
X146465904Y-80406571D01*
X146405428Y-80467047D01*
X146284476Y-80527523D01*
X145921619Y-80527523D01*
X145800666Y-80467047D01*
X145740190Y-80406571D01*
%TO.C,S22*%
X123506119Y-17602047D02*
X123687547Y-17662523D01*
X123989928Y-17662523D01*
X124110880Y-17602047D01*
X124171357Y-17541571D01*
X124231833Y-17420619D01*
X124231833Y-17299666D01*
X124171357Y-17178714D01*
X124110880Y-17118238D01*
X123989928Y-17057761D01*
X123748023Y-16997285D01*
X123627071Y-16936809D01*
X123566595Y-16876333D01*
X123506119Y-16755380D01*
X123506119Y-16634428D01*
X123566595Y-16513476D01*
X123627071Y-16453000D01*
X123748023Y-16392523D01*
X124050404Y-16392523D01*
X124231833Y-16453000D01*
X124715642Y-16513476D02*
X124776119Y-16453000D01*
X124897071Y-16392523D01*
X125199452Y-16392523D01*
X125320404Y-16453000D01*
X125380880Y-16513476D01*
X125441357Y-16634428D01*
X125441357Y-16755380D01*
X125380880Y-16936809D01*
X124655166Y-17662523D01*
X125441357Y-17662523D01*
X125925166Y-16513476D02*
X125985642Y-16453000D01*
X126106595Y-16392523D01*
X126408976Y-16392523D01*
X126529928Y-16453000D01*
X126590404Y-16513476D01*
X126650880Y-16634428D01*
X126650880Y-16755380D01*
X126590404Y-16936809D01*
X125864690Y-17662523D01*
X126650880Y-17662523D01*
%TO.C,S21*%
X101281119Y-17602047D02*
X101462547Y-17662523D01*
X101764928Y-17662523D01*
X101885880Y-17602047D01*
X101946357Y-17541571D01*
X102006833Y-17420619D01*
X102006833Y-17299666D01*
X101946357Y-17178714D01*
X101885880Y-17118238D01*
X101764928Y-17057761D01*
X101523023Y-16997285D01*
X101402071Y-16936809D01*
X101341595Y-16876333D01*
X101281119Y-16755380D01*
X101281119Y-16634428D01*
X101341595Y-16513476D01*
X101402071Y-16453000D01*
X101523023Y-16392523D01*
X101825404Y-16392523D01*
X102006833Y-16453000D01*
X102490642Y-16513476D02*
X102551119Y-16453000D01*
X102672071Y-16392523D01*
X102974452Y-16392523D01*
X103095404Y-16453000D01*
X103155880Y-16513476D01*
X103216357Y-16634428D01*
X103216357Y-16755380D01*
X103155880Y-16936809D01*
X102430166Y-17662523D01*
X103216357Y-17662523D01*
X104425880Y-17662523D02*
X103700166Y-17662523D01*
X104063023Y-17662523D02*
X104063023Y-16392523D01*
X103942071Y-16573952D01*
X103821119Y-16694904D01*
X103700166Y-16755380D01*
%TO.C,S20*%
X79056119Y-17602047D02*
X79237547Y-17662523D01*
X79539928Y-17662523D01*
X79660880Y-17602047D01*
X79721357Y-17541571D01*
X79781833Y-17420619D01*
X79781833Y-17299666D01*
X79721357Y-17178714D01*
X79660880Y-17118238D01*
X79539928Y-17057761D01*
X79298023Y-16997285D01*
X79177071Y-16936809D01*
X79116595Y-16876333D01*
X79056119Y-16755380D01*
X79056119Y-16634428D01*
X79116595Y-16513476D01*
X79177071Y-16453000D01*
X79298023Y-16392523D01*
X79600404Y-16392523D01*
X79781833Y-16453000D01*
X80265642Y-16513476D02*
X80326119Y-16453000D01*
X80447071Y-16392523D01*
X80749452Y-16392523D01*
X80870404Y-16453000D01*
X80930880Y-16513476D01*
X80991357Y-16634428D01*
X80991357Y-16755380D01*
X80930880Y-16936809D01*
X80205166Y-17662523D01*
X80991357Y-17662523D01*
X81777547Y-16392523D02*
X81898500Y-16392523D01*
X82019452Y-16453000D01*
X82079928Y-16513476D01*
X82140404Y-16634428D01*
X82200880Y-16876333D01*
X82200880Y-17178714D01*
X82140404Y-17420619D01*
X82079928Y-17541571D01*
X82019452Y-17602047D01*
X81898500Y-17662523D01*
X81777547Y-17662523D01*
X81656595Y-17602047D01*
X81596119Y-17541571D01*
X81535642Y-17420619D01*
X81475166Y-17178714D01*
X81475166Y-16876333D01*
X81535642Y-16634428D01*
X81596119Y-16513476D01*
X81656595Y-16453000D01*
X81777547Y-16392523D01*
%TO.C,S19*%
X56831119Y-17602047D02*
X57012547Y-17662523D01*
X57314928Y-17662523D01*
X57435880Y-17602047D01*
X57496357Y-17541571D01*
X57556833Y-17420619D01*
X57556833Y-17299666D01*
X57496357Y-17178714D01*
X57435880Y-17118238D01*
X57314928Y-17057761D01*
X57073023Y-16997285D01*
X56952071Y-16936809D01*
X56891595Y-16876333D01*
X56831119Y-16755380D01*
X56831119Y-16634428D01*
X56891595Y-16513476D01*
X56952071Y-16453000D01*
X57073023Y-16392523D01*
X57375404Y-16392523D01*
X57556833Y-16453000D01*
X58766357Y-17662523D02*
X58040642Y-17662523D01*
X58403500Y-17662523D02*
X58403500Y-16392523D01*
X58282547Y-16573952D01*
X58161595Y-16694904D01*
X58040642Y-16755380D01*
X59371119Y-17662523D02*
X59613023Y-17662523D01*
X59733976Y-17602047D01*
X59794452Y-17541571D01*
X59915404Y-17360142D01*
X59975880Y-17118238D01*
X59975880Y-16634428D01*
X59915404Y-16513476D01*
X59854928Y-16453000D01*
X59733976Y-16392523D01*
X59492071Y-16392523D01*
X59371119Y-16453000D01*
X59310642Y-16513476D01*
X59250166Y-16634428D01*
X59250166Y-16936809D01*
X59310642Y-17057761D01*
X59371119Y-17118238D01*
X59492071Y-17178714D01*
X59733976Y-17178714D01*
X59854928Y-17118238D01*
X59915404Y-17057761D01*
X59975880Y-16936809D01*
%TO.C,S18*%
X34606119Y-17602047D02*
X34787547Y-17662523D01*
X35089928Y-17662523D01*
X35210880Y-17602047D01*
X35271357Y-17541571D01*
X35331833Y-17420619D01*
X35331833Y-17299666D01*
X35271357Y-17178714D01*
X35210880Y-17118238D01*
X35089928Y-17057761D01*
X34848023Y-16997285D01*
X34727071Y-16936809D01*
X34666595Y-16876333D01*
X34606119Y-16755380D01*
X34606119Y-16634428D01*
X34666595Y-16513476D01*
X34727071Y-16453000D01*
X34848023Y-16392523D01*
X35150404Y-16392523D01*
X35331833Y-16453000D01*
X36541357Y-17662523D02*
X35815642Y-17662523D01*
X36178500Y-17662523D02*
X36178500Y-16392523D01*
X36057547Y-16573952D01*
X35936595Y-16694904D01*
X35815642Y-16755380D01*
X37267071Y-16936809D02*
X37146119Y-16876333D01*
X37085642Y-16815857D01*
X37025166Y-16694904D01*
X37025166Y-16634428D01*
X37085642Y-16513476D01*
X37146119Y-16453000D01*
X37267071Y-16392523D01*
X37508976Y-16392523D01*
X37629928Y-16453000D01*
X37690404Y-16513476D01*
X37750880Y-16634428D01*
X37750880Y-16694904D01*
X37690404Y-16815857D01*
X37629928Y-16876333D01*
X37508976Y-16936809D01*
X37267071Y-16936809D01*
X37146119Y-16997285D01*
X37085642Y-17057761D01*
X37025166Y-17178714D01*
X37025166Y-17420619D01*
X37085642Y-17541571D01*
X37146119Y-17602047D01*
X37267071Y-17662523D01*
X37508976Y-17662523D01*
X37629928Y-17602047D01*
X37690404Y-17541571D01*
X37750880Y-17420619D01*
X37750880Y-17178714D01*
X37690404Y-17057761D01*
X37629928Y-16997285D01*
X37508976Y-16936809D01*
%TO.C,S17*%
X102868619Y-60782047D02*
X103050047Y-60842523D01*
X103352428Y-60842523D01*
X103473380Y-60782047D01*
X103533857Y-60721571D01*
X103594333Y-60600619D01*
X103594333Y-60479666D01*
X103533857Y-60358714D01*
X103473380Y-60298238D01*
X103352428Y-60237761D01*
X103110523Y-60177285D01*
X102989571Y-60116809D01*
X102929095Y-60056333D01*
X102868619Y-59935380D01*
X102868619Y-59814428D01*
X102929095Y-59693476D01*
X102989571Y-59633000D01*
X103110523Y-59572523D01*
X103412904Y-59572523D01*
X103594333Y-59633000D01*
X104803857Y-60842523D02*
X104078142Y-60842523D01*
X104441000Y-60842523D02*
X104441000Y-59572523D01*
X104320047Y-59753952D01*
X104199095Y-59874904D01*
X104078142Y-59935380D01*
X105227190Y-59572523D02*
X106073857Y-59572523D01*
X105529571Y-60842523D01*
%TO.C,S16*%
X102868619Y-41732047D02*
X103050047Y-41792523D01*
X103352428Y-41792523D01*
X103473380Y-41732047D01*
X103533857Y-41671571D01*
X103594333Y-41550619D01*
X103594333Y-41429666D01*
X103533857Y-41308714D01*
X103473380Y-41248238D01*
X103352428Y-41187761D01*
X103110523Y-41127285D01*
X102989571Y-41066809D01*
X102929095Y-41006333D01*
X102868619Y-40885380D01*
X102868619Y-40764428D01*
X102929095Y-40643476D01*
X102989571Y-40583000D01*
X103110523Y-40522523D01*
X103412904Y-40522523D01*
X103594333Y-40583000D01*
X104803857Y-41792523D02*
X104078142Y-41792523D01*
X104441000Y-41792523D02*
X104441000Y-40522523D01*
X104320047Y-40703952D01*
X104199095Y-40824904D01*
X104078142Y-40885380D01*
X105892428Y-40522523D02*
X105650523Y-40522523D01*
X105529571Y-40583000D01*
X105469095Y-40643476D01*
X105348142Y-40824904D01*
X105287666Y-41066809D01*
X105287666Y-41550619D01*
X105348142Y-41671571D01*
X105408619Y-41732047D01*
X105529571Y-41792523D01*
X105771476Y-41792523D01*
X105892428Y-41732047D01*
X105952904Y-41671571D01*
X106013380Y-41550619D01*
X106013380Y-41248238D01*
X105952904Y-41127285D01*
X105892428Y-41066809D01*
X105771476Y-41006333D01*
X105529571Y-41006333D01*
X105408619Y-41066809D01*
X105348142Y-41127285D01*
X105287666Y-41248238D01*
%TO.C,S15*%
X74293619Y-60782047D02*
X74475047Y-60842523D01*
X74777428Y-60842523D01*
X74898380Y-60782047D01*
X74958857Y-60721571D01*
X75019333Y-60600619D01*
X75019333Y-60479666D01*
X74958857Y-60358714D01*
X74898380Y-60298238D01*
X74777428Y-60237761D01*
X74535523Y-60177285D01*
X74414571Y-60116809D01*
X74354095Y-60056333D01*
X74293619Y-59935380D01*
X74293619Y-59814428D01*
X74354095Y-59693476D01*
X74414571Y-59633000D01*
X74535523Y-59572523D01*
X74837904Y-59572523D01*
X75019333Y-59633000D01*
X76228857Y-60842523D02*
X75503142Y-60842523D01*
X75866000Y-60842523D02*
X75866000Y-59572523D01*
X75745047Y-59753952D01*
X75624095Y-59874904D01*
X75503142Y-59935380D01*
X77377904Y-59572523D02*
X76773142Y-59572523D01*
X76712666Y-60177285D01*
X76773142Y-60116809D01*
X76894095Y-60056333D01*
X77196476Y-60056333D01*
X77317428Y-60116809D01*
X77377904Y-60177285D01*
X77438380Y-60298238D01*
X77438380Y-60600619D01*
X77377904Y-60721571D01*
X77317428Y-60782047D01*
X77196476Y-60842523D01*
X76894095Y-60842523D01*
X76773142Y-60782047D01*
X76712666Y-60721571D01*
%TO.C,S14*%
X74293619Y-79832047D02*
X74475047Y-79892523D01*
X74777428Y-79892523D01*
X74898380Y-79832047D01*
X74958857Y-79771571D01*
X75019333Y-79650619D01*
X75019333Y-79529666D01*
X74958857Y-79408714D01*
X74898380Y-79348238D01*
X74777428Y-79287761D01*
X74535523Y-79227285D01*
X74414571Y-79166809D01*
X74354095Y-79106333D01*
X74293619Y-78985380D01*
X74293619Y-78864428D01*
X74354095Y-78743476D01*
X74414571Y-78683000D01*
X74535523Y-78622523D01*
X74837904Y-78622523D01*
X75019333Y-78683000D01*
X76228857Y-79892523D02*
X75503142Y-79892523D01*
X75866000Y-79892523D02*
X75866000Y-78622523D01*
X75745047Y-78803952D01*
X75624095Y-78924904D01*
X75503142Y-78985380D01*
X77317428Y-79045857D02*
X77317428Y-79892523D01*
X77015047Y-78562047D02*
X76712666Y-79469190D01*
X77498857Y-79469190D01*
%TO.C,S13*%
X74293619Y-41732047D02*
X74475047Y-41792523D01*
X74777428Y-41792523D01*
X74898380Y-41732047D01*
X74958857Y-41671571D01*
X75019333Y-41550619D01*
X75019333Y-41429666D01*
X74958857Y-41308714D01*
X74898380Y-41248238D01*
X74777428Y-41187761D01*
X74535523Y-41127285D01*
X74414571Y-41066809D01*
X74354095Y-41006333D01*
X74293619Y-40885380D01*
X74293619Y-40764428D01*
X74354095Y-40643476D01*
X74414571Y-40583000D01*
X74535523Y-40522523D01*
X74837904Y-40522523D01*
X75019333Y-40583000D01*
X76228857Y-41792523D02*
X75503142Y-41792523D01*
X75866000Y-41792523D02*
X75866000Y-40522523D01*
X75745047Y-40703952D01*
X75624095Y-40824904D01*
X75503142Y-40885380D01*
X76652190Y-40522523D02*
X77438380Y-40522523D01*
X77015047Y-41006333D01*
X77196476Y-41006333D01*
X77317428Y-41066809D01*
X77377904Y-41127285D01*
X77438380Y-41248238D01*
X77438380Y-41550619D01*
X77377904Y-41671571D01*
X77317428Y-41732047D01*
X77196476Y-41792523D01*
X76833619Y-41792523D01*
X76712666Y-41732047D01*
X76652190Y-41671571D01*
%TO.C,S12*%
X93343619Y-79832047D02*
X93525047Y-79892523D01*
X93827428Y-79892523D01*
X93948380Y-79832047D01*
X94008857Y-79771571D01*
X94069333Y-79650619D01*
X94069333Y-79529666D01*
X94008857Y-79408714D01*
X93948380Y-79348238D01*
X93827428Y-79287761D01*
X93585523Y-79227285D01*
X93464571Y-79166809D01*
X93404095Y-79106333D01*
X93343619Y-78985380D01*
X93343619Y-78864428D01*
X93404095Y-78743476D01*
X93464571Y-78683000D01*
X93585523Y-78622523D01*
X93887904Y-78622523D01*
X94069333Y-78683000D01*
X95278857Y-79892523D02*
X94553142Y-79892523D01*
X94916000Y-79892523D02*
X94916000Y-78622523D01*
X94795047Y-78803952D01*
X94674095Y-78924904D01*
X94553142Y-78985380D01*
X95762666Y-78743476D02*
X95823142Y-78683000D01*
X95944095Y-78622523D01*
X96246476Y-78622523D01*
X96367428Y-78683000D01*
X96427904Y-78743476D01*
X96488380Y-78864428D01*
X96488380Y-78985380D01*
X96427904Y-79166809D01*
X95702190Y-79892523D01*
X96488380Y-79892523D01*
%TO.C,S11*%
X143381619Y-66497047D02*
X143563047Y-66557523D01*
X143865428Y-66557523D01*
X143986380Y-66497047D01*
X144046857Y-66436571D01*
X144107333Y-66315619D01*
X144107333Y-66194666D01*
X144046857Y-66073714D01*
X143986380Y-66013238D01*
X143865428Y-65952761D01*
X143623523Y-65892285D01*
X143502571Y-65831809D01*
X143442095Y-65771333D01*
X143381619Y-65650380D01*
X143381619Y-65529428D01*
X143442095Y-65408476D01*
X143502571Y-65348000D01*
X143623523Y-65287523D01*
X143925904Y-65287523D01*
X144107333Y-65348000D01*
X145316857Y-66557523D02*
X144591142Y-66557523D01*
X144954000Y-66557523D02*
X144954000Y-65287523D01*
X144833047Y-65468952D01*
X144712095Y-65589904D01*
X144591142Y-65650380D01*
X146526380Y-66557523D02*
X145800666Y-66557523D01*
X146163523Y-66557523D02*
X146163523Y-65287523D01*
X146042571Y-65468952D01*
X145921619Y-65589904D01*
X145800666Y-65650380D01*
%TO.C,S10*%
X55243619Y-60782047D02*
X55425047Y-60842523D01*
X55727428Y-60842523D01*
X55848380Y-60782047D01*
X55908857Y-60721571D01*
X55969333Y-60600619D01*
X55969333Y-60479666D01*
X55908857Y-60358714D01*
X55848380Y-60298238D01*
X55727428Y-60237761D01*
X55485523Y-60177285D01*
X55364571Y-60116809D01*
X55304095Y-60056333D01*
X55243619Y-59935380D01*
X55243619Y-59814428D01*
X55304095Y-59693476D01*
X55364571Y-59633000D01*
X55485523Y-59572523D01*
X55787904Y-59572523D01*
X55969333Y-59633000D01*
X57178857Y-60842523D02*
X56453142Y-60842523D01*
X56816000Y-60842523D02*
X56816000Y-59572523D01*
X56695047Y-59753952D01*
X56574095Y-59874904D01*
X56453142Y-59935380D01*
X57965047Y-59572523D02*
X58086000Y-59572523D01*
X58206952Y-59633000D01*
X58267428Y-59693476D01*
X58327904Y-59814428D01*
X58388380Y-60056333D01*
X58388380Y-60358714D01*
X58327904Y-60600619D01*
X58267428Y-60721571D01*
X58206952Y-60782047D01*
X58086000Y-60842523D01*
X57965047Y-60842523D01*
X57844095Y-60782047D01*
X57783619Y-60721571D01*
X57723142Y-60600619D01*
X57662666Y-60358714D01*
X57662666Y-60056333D01*
X57723142Y-59814428D01*
X57783619Y-59693476D01*
X57844095Y-59633000D01*
X57965047Y-59572523D01*
%TO.C,S9*%
X143986380Y-48082047D02*
X144167809Y-48142523D01*
X144470190Y-48142523D01*
X144591142Y-48082047D01*
X144651619Y-48021571D01*
X144712095Y-47900619D01*
X144712095Y-47779666D01*
X144651619Y-47658714D01*
X144591142Y-47598238D01*
X144470190Y-47537761D01*
X144228285Y-47477285D01*
X144107333Y-47416809D01*
X144046857Y-47356333D01*
X143986380Y-47235380D01*
X143986380Y-47114428D01*
X144046857Y-46993476D01*
X144107333Y-46933000D01*
X144228285Y-46872523D01*
X144530666Y-46872523D01*
X144712095Y-46933000D01*
X145316857Y-48142523D02*
X145558761Y-48142523D01*
X145679714Y-48082047D01*
X145740190Y-48021571D01*
X145861142Y-47840142D01*
X145921619Y-47598238D01*
X145921619Y-47114428D01*
X145861142Y-46993476D01*
X145800666Y-46933000D01*
X145679714Y-46872523D01*
X145437809Y-46872523D01*
X145316857Y-46933000D01*
X145256380Y-46993476D01*
X145195904Y-47114428D01*
X145195904Y-47416809D01*
X145256380Y-47537761D01*
X145316857Y-47598238D01*
X145437809Y-47658714D01*
X145679714Y-47658714D01*
X145800666Y-47598238D01*
X145861142Y-47537761D01*
X145921619Y-47416809D01*
%TO.C,S8*%
X55848380Y-79832047D02*
X56029809Y-79892523D01*
X56332190Y-79892523D01*
X56453142Y-79832047D01*
X56513619Y-79771571D01*
X56574095Y-79650619D01*
X56574095Y-79529666D01*
X56513619Y-79408714D01*
X56453142Y-79348238D01*
X56332190Y-79287761D01*
X56090285Y-79227285D01*
X55969333Y-79166809D01*
X55908857Y-79106333D01*
X55848380Y-78985380D01*
X55848380Y-78864428D01*
X55908857Y-78743476D01*
X55969333Y-78683000D01*
X56090285Y-78622523D01*
X56392666Y-78622523D01*
X56574095Y-78683000D01*
X57299809Y-79166809D02*
X57178857Y-79106333D01*
X57118380Y-79045857D01*
X57057904Y-78924904D01*
X57057904Y-78864428D01*
X57118380Y-78743476D01*
X57178857Y-78683000D01*
X57299809Y-78622523D01*
X57541714Y-78622523D01*
X57662666Y-78683000D01*
X57723142Y-78743476D01*
X57783619Y-78864428D01*
X57783619Y-78924904D01*
X57723142Y-79045857D01*
X57662666Y-79106333D01*
X57541714Y-79166809D01*
X57299809Y-79166809D01*
X57178857Y-79227285D01*
X57118380Y-79287761D01*
X57057904Y-79408714D01*
X57057904Y-79650619D01*
X57118380Y-79771571D01*
X57178857Y-79832047D01*
X57299809Y-79892523D01*
X57541714Y-79892523D01*
X57662666Y-79832047D01*
X57723142Y-79771571D01*
X57783619Y-79650619D01*
X57783619Y-79408714D01*
X57723142Y-79287761D01*
X57662666Y-79227285D01*
X57541714Y-79166809D01*
%TO.C,S7*%
X55848380Y-41732047D02*
X56029809Y-41792523D01*
X56332190Y-41792523D01*
X56453142Y-41732047D01*
X56513619Y-41671571D01*
X56574095Y-41550619D01*
X56574095Y-41429666D01*
X56513619Y-41308714D01*
X56453142Y-41248238D01*
X56332190Y-41187761D01*
X56090285Y-41127285D01*
X55969333Y-41066809D01*
X55908857Y-41006333D01*
X55848380Y-40885380D01*
X55848380Y-40764428D01*
X55908857Y-40643476D01*
X55969333Y-40583000D01*
X56090285Y-40522523D01*
X56392666Y-40522523D01*
X56574095Y-40583000D01*
X56997428Y-40522523D02*
X57844095Y-40522523D01*
X57299809Y-41792523D01*
%TO.C,S6*%
X36798380Y-115392047D02*
X36979809Y-115452523D01*
X37282190Y-115452523D01*
X37403142Y-115392047D01*
X37463619Y-115331571D01*
X37524095Y-115210619D01*
X37524095Y-115089666D01*
X37463619Y-114968714D01*
X37403142Y-114908238D01*
X37282190Y-114847761D01*
X37040285Y-114787285D01*
X36919333Y-114726809D01*
X36858857Y-114666333D01*
X36798380Y-114545380D01*
X36798380Y-114424428D01*
X36858857Y-114303476D01*
X36919333Y-114243000D01*
X37040285Y-114182523D01*
X37342666Y-114182523D01*
X37524095Y-114243000D01*
X38612666Y-114182523D02*
X38370761Y-114182523D01*
X38249809Y-114243000D01*
X38189333Y-114303476D01*
X38068380Y-114484904D01*
X38007904Y-114726809D01*
X38007904Y-115210619D01*
X38068380Y-115331571D01*
X38128857Y-115392047D01*
X38249809Y-115452523D01*
X38491714Y-115452523D01*
X38612666Y-115392047D01*
X38673142Y-115331571D01*
X38733619Y-115210619D01*
X38733619Y-114908238D01*
X38673142Y-114787285D01*
X38612666Y-114726809D01*
X38491714Y-114666333D01*
X38249809Y-114666333D01*
X38128857Y-114726809D01*
X38068380Y-114787285D01*
X38007904Y-114908238D01*
%TO.C,S5*%
X36798380Y-60782047D02*
X36979809Y-60842523D01*
X37282190Y-60842523D01*
X37403142Y-60782047D01*
X37463619Y-60721571D01*
X37524095Y-60600619D01*
X37524095Y-60479666D01*
X37463619Y-60358714D01*
X37403142Y-60298238D01*
X37282190Y-60237761D01*
X37040285Y-60177285D01*
X36919333Y-60116809D01*
X36858857Y-60056333D01*
X36798380Y-59935380D01*
X36798380Y-59814428D01*
X36858857Y-59693476D01*
X36919333Y-59633000D01*
X37040285Y-59572523D01*
X37342666Y-59572523D01*
X37524095Y-59633000D01*
X38673142Y-59572523D02*
X38068380Y-59572523D01*
X38007904Y-60177285D01*
X38068380Y-60116809D01*
X38189333Y-60056333D01*
X38491714Y-60056333D01*
X38612666Y-60116809D01*
X38673142Y-60177285D01*
X38733619Y-60298238D01*
X38733619Y-60600619D01*
X38673142Y-60721571D01*
X38612666Y-60782047D01*
X38491714Y-60842523D01*
X38189333Y-60842523D01*
X38068380Y-60782047D01*
X38007904Y-60721571D01*
%TO.C,S4*%
X36798380Y-79832047D02*
X36979809Y-79892523D01*
X37282190Y-79892523D01*
X37403142Y-79832047D01*
X37463619Y-79771571D01*
X37524095Y-79650619D01*
X37524095Y-79529666D01*
X37463619Y-79408714D01*
X37403142Y-79348238D01*
X37282190Y-79287761D01*
X37040285Y-79227285D01*
X36919333Y-79166809D01*
X36858857Y-79106333D01*
X36798380Y-78985380D01*
X36798380Y-78864428D01*
X36858857Y-78743476D01*
X36919333Y-78683000D01*
X37040285Y-78622523D01*
X37342666Y-78622523D01*
X37524095Y-78683000D01*
X38612666Y-79045857D02*
X38612666Y-79892523D01*
X38310285Y-78562047D02*
X38007904Y-79469190D01*
X38794095Y-79469190D01*
%TO.C,S3*%
X36798380Y-41732047D02*
X36979809Y-41792523D01*
X37282190Y-41792523D01*
X37403142Y-41732047D01*
X37463619Y-41671571D01*
X37524095Y-41550619D01*
X37524095Y-41429666D01*
X37463619Y-41308714D01*
X37403142Y-41248238D01*
X37282190Y-41187761D01*
X37040285Y-41127285D01*
X36919333Y-41066809D01*
X36858857Y-41006333D01*
X36798380Y-40885380D01*
X36798380Y-40764428D01*
X36858857Y-40643476D01*
X36919333Y-40583000D01*
X37040285Y-40522523D01*
X37342666Y-40522523D01*
X37524095Y-40583000D01*
X37947428Y-40522523D02*
X38733619Y-40522523D01*
X38310285Y-41006333D01*
X38491714Y-41006333D01*
X38612666Y-41066809D01*
X38673142Y-41127285D01*
X38733619Y-41248238D01*
X38733619Y-41550619D01*
X38673142Y-41671571D01*
X38612666Y-41732047D01*
X38491714Y-41792523D01*
X38128857Y-41792523D01*
X38007904Y-41732047D01*
X37947428Y-41671571D01*
%TO.C,S2*%
X36798380Y-101422047D02*
X36979809Y-101482523D01*
X37282190Y-101482523D01*
X37403142Y-101422047D01*
X37463619Y-101361571D01*
X37524095Y-101240619D01*
X37524095Y-101119666D01*
X37463619Y-100998714D01*
X37403142Y-100938238D01*
X37282190Y-100877761D01*
X37040285Y-100817285D01*
X36919333Y-100756809D01*
X36858857Y-100696333D01*
X36798380Y-100575380D01*
X36798380Y-100454428D01*
X36858857Y-100333476D01*
X36919333Y-100273000D01*
X37040285Y-100212523D01*
X37342666Y-100212523D01*
X37524095Y-100273000D01*
X38007904Y-100333476D02*
X38068380Y-100273000D01*
X38189333Y-100212523D01*
X38491714Y-100212523D01*
X38612666Y-100273000D01*
X38673142Y-100333476D01*
X38733619Y-100454428D01*
X38733619Y-100575380D01*
X38673142Y-100756809D01*
X37947428Y-101482523D01*
X38733619Y-101482523D01*
%TO.C,S1*%
X146335880Y-17602047D02*
X146517309Y-17662523D01*
X146819690Y-17662523D01*
X146940642Y-17602047D01*
X147001119Y-17541571D01*
X147061595Y-17420619D01*
X147061595Y-17299666D01*
X147001119Y-17178714D01*
X146940642Y-17118238D01*
X146819690Y-17057761D01*
X146577785Y-16997285D01*
X146456833Y-16936809D01*
X146396357Y-16876333D01*
X146335880Y-16755380D01*
X146335880Y-16634428D01*
X146396357Y-16513476D01*
X146456833Y-16453000D01*
X146577785Y-16392523D01*
X146880166Y-16392523D01*
X147061595Y-16453000D01*
X148271119Y-17662523D02*
X147545404Y-17662523D01*
X147908261Y-17662523D02*
X147908261Y-16392523D01*
X147787309Y-16573952D01*
X147666357Y-16694904D01*
X147545404Y-16755380D01*
%TO.C,D27*%
D12*
X132135714Y-54642380D02*
X132135714Y-53642380D01*
X132373809Y-53642380D01*
X132516666Y-53690000D01*
X132611904Y-53785238D01*
X132659523Y-53880476D01*
X132707142Y-54070952D01*
X132707142Y-54213809D01*
X132659523Y-54404285D01*
X132611904Y-54499523D01*
X132516666Y-54594761D01*
X132373809Y-54642380D01*
X132135714Y-54642380D01*
X133088095Y-53737619D02*
X133135714Y-53690000D01*
X133230952Y-53642380D01*
X133469047Y-53642380D01*
X133564285Y-53690000D01*
X133611904Y-53737619D01*
X133659523Y-53832857D01*
X133659523Y-53928095D01*
X133611904Y-54070952D01*
X133040476Y-54642380D01*
X133659523Y-54642380D01*
X133992857Y-53642380D02*
X134659523Y-53642380D01*
X134230952Y-54642380D01*
%TO.C,D26*%
X66095714Y-48292380D02*
X66095714Y-47292380D01*
X66333809Y-47292380D01*
X66476666Y-47340000D01*
X66571904Y-47435238D01*
X66619523Y-47530476D01*
X66667142Y-47720952D01*
X66667142Y-47863809D01*
X66619523Y-48054285D01*
X66571904Y-48149523D01*
X66476666Y-48244761D01*
X66333809Y-48292380D01*
X66095714Y-48292380D01*
X67048095Y-47387619D02*
X67095714Y-47340000D01*
X67190952Y-47292380D01*
X67429047Y-47292380D01*
X67524285Y-47340000D01*
X67571904Y-47387619D01*
X67619523Y-47482857D01*
X67619523Y-47578095D01*
X67571904Y-47720952D01*
X67000476Y-48292380D01*
X67619523Y-48292380D01*
X68476666Y-47292380D02*
X68286190Y-47292380D01*
X68190952Y-47340000D01*
X68143333Y-47387619D01*
X68048095Y-47530476D01*
X68000476Y-47720952D01*
X68000476Y-48101904D01*
X68048095Y-48197142D01*
X68095714Y-48244761D01*
X68190952Y-48292380D01*
X68381428Y-48292380D01*
X68476666Y-48244761D01*
X68524285Y-48197142D01*
X68571904Y-48101904D01*
X68571904Y-47863809D01*
X68524285Y-47768571D01*
X68476666Y-47720952D01*
X68381428Y-47673333D01*
X68190952Y-47673333D01*
X68095714Y-47720952D01*
X68048095Y-47768571D01*
X68000476Y-47863809D01*
%TO.C,D25*%
X110545714Y-25432380D02*
X110545714Y-24432380D01*
X110783809Y-24432380D01*
X110926666Y-24480000D01*
X111021904Y-24575238D01*
X111069523Y-24670476D01*
X111117142Y-24860952D01*
X111117142Y-25003809D01*
X111069523Y-25194285D01*
X111021904Y-25289523D01*
X110926666Y-25384761D01*
X110783809Y-25432380D01*
X110545714Y-25432380D01*
X111498095Y-24527619D02*
X111545714Y-24480000D01*
X111640952Y-24432380D01*
X111879047Y-24432380D01*
X111974285Y-24480000D01*
X112021904Y-24527619D01*
X112069523Y-24622857D01*
X112069523Y-24718095D01*
X112021904Y-24860952D01*
X111450476Y-25432380D01*
X112069523Y-25432380D01*
X112974285Y-24432380D02*
X112498095Y-24432380D01*
X112450476Y-24908571D01*
X112498095Y-24860952D01*
X112593333Y-24813333D01*
X112831428Y-24813333D01*
X112926666Y-24860952D01*
X112974285Y-24908571D01*
X113021904Y-25003809D01*
X113021904Y-25241904D01*
X112974285Y-25337142D01*
X112926666Y-25384761D01*
X112831428Y-25432380D01*
X112593333Y-25432380D01*
X112498095Y-25384761D01*
X112450476Y-25337142D01*
%TO.C,D24*%
X90225714Y-48292380D02*
X90225714Y-47292380D01*
X90463809Y-47292380D01*
X90606666Y-47340000D01*
X90701904Y-47435238D01*
X90749523Y-47530476D01*
X90797142Y-47720952D01*
X90797142Y-47863809D01*
X90749523Y-48054285D01*
X90701904Y-48149523D01*
X90606666Y-48244761D01*
X90463809Y-48292380D01*
X90225714Y-48292380D01*
X91178095Y-47387619D02*
X91225714Y-47340000D01*
X91320952Y-47292380D01*
X91559047Y-47292380D01*
X91654285Y-47340000D01*
X91701904Y-47387619D01*
X91749523Y-47482857D01*
X91749523Y-47578095D01*
X91701904Y-47720952D01*
X91130476Y-48292380D01*
X91749523Y-48292380D01*
X92606666Y-47625714D02*
X92606666Y-48292380D01*
X92368571Y-47244761D02*
X92130476Y-47959047D01*
X92749523Y-47959047D01*
%TO.C,D23*%
X115625714Y-48292380D02*
X115625714Y-47292380D01*
X115863809Y-47292380D01*
X116006666Y-47340000D01*
X116101904Y-47435238D01*
X116149523Y-47530476D01*
X116197142Y-47720952D01*
X116197142Y-47863809D01*
X116149523Y-48054285D01*
X116101904Y-48149523D01*
X116006666Y-48244761D01*
X115863809Y-48292380D01*
X115625714Y-48292380D01*
X116578095Y-47387619D02*
X116625714Y-47340000D01*
X116720952Y-47292380D01*
X116959047Y-47292380D01*
X117054285Y-47340000D01*
X117101904Y-47387619D01*
X117149523Y-47482857D01*
X117149523Y-47578095D01*
X117101904Y-47720952D01*
X116530476Y-48292380D01*
X117149523Y-48292380D01*
X117482857Y-47292380D02*
X118101904Y-47292380D01*
X117768571Y-47673333D01*
X117911428Y-47673333D01*
X118006666Y-47720952D01*
X118054285Y-47768571D01*
X118101904Y-47863809D01*
X118101904Y-48101904D01*
X118054285Y-48197142D01*
X118006666Y-48244761D01*
X117911428Y-48292380D01*
X117625714Y-48292380D01*
X117530476Y-48244761D01*
X117482857Y-48197142D01*
%TO.C,D22*%
X47045714Y-48292380D02*
X47045714Y-47292380D01*
X47283809Y-47292380D01*
X47426666Y-47340000D01*
X47521904Y-47435238D01*
X47569523Y-47530476D01*
X47617142Y-47720952D01*
X47617142Y-47863809D01*
X47569523Y-48054285D01*
X47521904Y-48149523D01*
X47426666Y-48244761D01*
X47283809Y-48292380D01*
X47045714Y-48292380D01*
X47998095Y-47387619D02*
X48045714Y-47340000D01*
X48140952Y-47292380D01*
X48379047Y-47292380D01*
X48474285Y-47340000D01*
X48521904Y-47387619D01*
X48569523Y-47482857D01*
X48569523Y-47578095D01*
X48521904Y-47720952D01*
X47950476Y-48292380D01*
X48569523Y-48292380D01*
X48950476Y-47387619D02*
X48998095Y-47340000D01*
X49093333Y-47292380D01*
X49331428Y-47292380D01*
X49426666Y-47340000D01*
X49474285Y-47387619D01*
X49521904Y-47482857D01*
X49521904Y-47578095D01*
X49474285Y-47720952D01*
X48902857Y-48292380D01*
X49521904Y-48292380D01*
%TO.C,D21*%
X135945714Y-25432380D02*
X135945714Y-24432380D01*
X136183809Y-24432380D01*
X136326666Y-24480000D01*
X136421904Y-24575238D01*
X136469523Y-24670476D01*
X136517142Y-24860952D01*
X136517142Y-25003809D01*
X136469523Y-25194285D01*
X136421904Y-25289523D01*
X136326666Y-25384761D01*
X136183809Y-25432380D01*
X135945714Y-25432380D01*
X136898095Y-24527619D02*
X136945714Y-24480000D01*
X137040952Y-24432380D01*
X137279047Y-24432380D01*
X137374285Y-24480000D01*
X137421904Y-24527619D01*
X137469523Y-24622857D01*
X137469523Y-24718095D01*
X137421904Y-24860952D01*
X136850476Y-25432380D01*
X137469523Y-25432380D01*
X138421904Y-25432380D02*
X137850476Y-25432380D01*
X138136190Y-25432380D02*
X138136190Y-24432380D01*
X138040952Y-24575238D01*
X137945714Y-24670476D01*
X137850476Y-24718095D01*
%TO.C,D20*%
X90225714Y-25432380D02*
X90225714Y-24432380D01*
X90463809Y-24432380D01*
X90606666Y-24480000D01*
X90701904Y-24575238D01*
X90749523Y-24670476D01*
X90797142Y-24860952D01*
X90797142Y-25003809D01*
X90749523Y-25194285D01*
X90701904Y-25289523D01*
X90606666Y-25384761D01*
X90463809Y-25432380D01*
X90225714Y-25432380D01*
X91178095Y-24527619D02*
X91225714Y-24480000D01*
X91320952Y-24432380D01*
X91559047Y-24432380D01*
X91654285Y-24480000D01*
X91701904Y-24527619D01*
X91749523Y-24622857D01*
X91749523Y-24718095D01*
X91701904Y-24860952D01*
X91130476Y-25432380D01*
X91749523Y-25432380D01*
X92368571Y-24432380D02*
X92463809Y-24432380D01*
X92559047Y-24480000D01*
X92606666Y-24527619D01*
X92654285Y-24622857D01*
X92701904Y-24813333D01*
X92701904Y-25051428D01*
X92654285Y-25241904D01*
X92606666Y-25337142D01*
X92559047Y-25384761D01*
X92463809Y-25432380D01*
X92368571Y-25432380D01*
X92273333Y-25384761D01*
X92225714Y-25337142D01*
X92178095Y-25241904D01*
X92130476Y-25051428D01*
X92130476Y-24813333D01*
X92178095Y-24622857D01*
X92225714Y-24527619D01*
X92273333Y-24480000D01*
X92368571Y-24432380D01*
%TO.C,D19*%
X67365714Y-31352380D02*
X67365714Y-30352380D01*
X67603809Y-30352380D01*
X67746666Y-30400000D01*
X67841904Y-30495238D01*
X67889523Y-30590476D01*
X67937142Y-30780952D01*
X67937142Y-30923809D01*
X67889523Y-31114285D01*
X67841904Y-31209523D01*
X67746666Y-31304761D01*
X67603809Y-31352380D01*
X67365714Y-31352380D01*
X68889523Y-31352380D02*
X68318095Y-31352380D01*
X68603809Y-31352380D02*
X68603809Y-30352380D01*
X68508571Y-30495238D01*
X68413333Y-30590476D01*
X68318095Y-30638095D01*
X69365714Y-31352380D02*
X69556190Y-31352380D01*
X69651428Y-31304761D01*
X69699047Y-31257142D01*
X69794285Y-31114285D01*
X69841904Y-30923809D01*
X69841904Y-30542857D01*
X69794285Y-30447619D01*
X69746666Y-30400000D01*
X69651428Y-30352380D01*
X69460952Y-30352380D01*
X69365714Y-30400000D01*
X69318095Y-30447619D01*
X69270476Y-30542857D01*
X69270476Y-30780952D01*
X69318095Y-30876190D01*
X69365714Y-30923809D01*
X69460952Y-30971428D01*
X69651428Y-30971428D01*
X69746666Y-30923809D01*
X69794285Y-30876190D01*
X69841904Y-30780952D01*
%TO.C,D18*%
X47045714Y-25432380D02*
X47045714Y-24432380D01*
X47283809Y-24432380D01*
X47426666Y-24480000D01*
X47521904Y-24575238D01*
X47569523Y-24670476D01*
X47617142Y-24860952D01*
X47617142Y-25003809D01*
X47569523Y-25194285D01*
X47521904Y-25289523D01*
X47426666Y-25384761D01*
X47283809Y-25432380D01*
X47045714Y-25432380D01*
X48569523Y-25432380D02*
X47998095Y-25432380D01*
X48283809Y-25432380D02*
X48283809Y-24432380D01*
X48188571Y-24575238D01*
X48093333Y-24670476D01*
X47998095Y-24718095D01*
X49140952Y-24860952D02*
X49045714Y-24813333D01*
X48998095Y-24765714D01*
X48950476Y-24670476D01*
X48950476Y-24622857D01*
X48998095Y-24527619D01*
X49045714Y-24480000D01*
X49140952Y-24432380D01*
X49331428Y-24432380D01*
X49426666Y-24480000D01*
X49474285Y-24527619D01*
X49521904Y-24622857D01*
X49521904Y-24670476D01*
X49474285Y-24765714D01*
X49426666Y-24813333D01*
X49331428Y-24860952D01*
X49140952Y-24860952D01*
X49045714Y-24908571D01*
X48998095Y-24956190D01*
X48950476Y-25051428D01*
X48950476Y-25241904D01*
X48998095Y-25337142D01*
X49045714Y-25384761D01*
X49140952Y-25432380D01*
X49331428Y-25432380D01*
X49426666Y-25384761D01*
X49474285Y-25337142D01*
X49521904Y-25241904D01*
X49521904Y-25051428D01*
X49474285Y-24956190D01*
X49426666Y-24908571D01*
X49331428Y-24860952D01*
%TD*%
M02*
