M48
; DRILL file {KiCad (5.1.10)-1} date 07/06/21 22:17:25
; FORMAT={-:-/ absolute / inch / decimal}
; #@! TF.CreationDate,2021-07-06T22:17:25-04:00
; #@! TF.GenerationSoftware,Kicad,Pcbnew,(5.1.10)-1
; #@! TF.FileFunction,NonPlated,1,4,NPTH
FMAT,2
INCH
T1C0.0709
T2C0.1260
%
G90
G05
T1
X1.4375Y-0.4978
X1.4375Y-0.8522
X1.5Y-1.4478
X1.5Y-1.8022
X1.5Y-2.1978
X1.5Y-2.5522
X1.5Y-2.9478
X1.5Y-3.3022
X1.5Y-3.7978
X1.5Y-4.1522
X1.5Y-4.3478
X1.5Y-4.7022
X2.25Y-1.4478
X2.25Y-1.8022
X2.25Y-2.1978
X2.25Y-2.5522
X2.25Y-2.9478
X2.25Y-3.3022
X2.3125Y-0.4978
X2.3125Y-0.8522
X3.0Y-1.4478
X3.0Y-1.8022
X3.0Y-2.1978
X3.0Y-2.5522
X3.0Y-2.9478
X3.0Y-3.3022
X3.1875Y-0.4978
X3.1875Y-0.8522
X3.75Y-2.9478
X3.75Y-3.3022
X4.0625Y-0.4978
X4.0625Y-0.8522
X4.125Y-1.4478
X4.125Y-1.8022
X4.125Y-2.1978
X4.125Y-2.5522
X4.9375Y-0.4978
X4.9375Y-0.8522
X5.72Y-1.6978
X5.72Y-2.0522
X5.72Y-2.4228
X5.72Y-2.7772
X5.72Y-2.9728
X5.72Y-3.3272
X5.8125Y-0.4978
X5.8125Y-0.8522
T2
X0.875Y-0.625
X0.875Y-2.625
X0.875Y-4.625
X3.625Y-2.625
X6.375Y-0.625
X6.375Y-4.625
T0
M30
