M48
; DRILL file {KiCad (5.1.10)-1} date 07/06/21 22:17:25
; FORMAT={-:-/ absolute / inch / decimal}
; #@! TF.CreationDate,2021-07-06T22:17:25-04:00
; #@! TF.GenerationSoftware,Kicad,Pcbnew,(5.1.10)-1
; #@! TF.FileFunction,Plated,1,4,PTH
FMAT,2
INCH
T1C0.0157
T2C0.0276
T3C0.0315
T4C0.0354
T5C0.0394
T6C0.0417
T7C0.0512
%
G90
G05
T1
X0.8Y-3.55
X1.0Y-1.45
X1.1Y-4.65
X4.05Y-3.75
X4.1Y-3.7
X4.2Y-3.25
X4.2Y-3.55
X4.2Y-4.0
X4.65Y-1.3
X4.7Y-1.7
X4.7Y-4.2
X4.9Y-1.45
X5.0Y-3.25
X5.1Y-3.3
X5.6Y-1.7
X5.7Y-4.25
X5.75Y-3.6
T2
X4.75Y-2.75
X4.85Y-2.65
X4.95Y-1.6
X4.95Y-2.75
X5.05Y-1.5
X5.15Y-1.6
T3
X1.85Y-1.3
X1.9Y-2.2
X1.9Y-2.4
X1.9Y-2.95
X1.9Y-3.15
X1.95Y-3.65
X1.95Y-4.05
X1.95Y-4.25
X2.05Y-1.3
X2.15Y-3.65
X2.25Y-2.0
X2.45Y-2.0
X2.6Y-2.95
X2.6Y-3.15
X3.0Y-1.2
X3.0Y-3.5
X3.2Y-1.2
X3.2Y-3.5
X3.4Y-2.35
X3.4Y-2.55
X3.5Y-1.7
X3.55Y-1.3
X3.7Y-1.7
X3.75Y-1.3
X3.95Y-1.25
X4.15Y-1.25
X4.2Y-2.0
X4.3Y-3.05
X4.35Y-4.6
X4.4Y-2.0
X4.5Y-3.05
X4.55Y-4.6
X4.65Y-2.45
X4.8Y-2.25
X4.85Y-1.3
X4.85Y-2.45
X5.0Y-2.25
X5.05Y-1.3
X5.1Y-3.05
X5.25Y-1.3
X5.3Y-3.05
X5.45Y-1.3
T4
X0.9Y-4.2
X0.9Y-4.4
X1.05Y-3.05
X1.05Y-3.25
X1.1Y-4.2
X1.1Y-4.4
X1.15Y-1.05
X1.15Y-2.0
X1.35Y-1.05
X1.35Y-2.0
X1.45Y-2.75
X1.5Y-2.0
X1.65Y-2.75
X1.7Y-2.0
X1.85Y-1.1
X1.85Y-2.0
X1.85Y-2.75
X1.85Y-3.5
X1.95Y-1.1
X1.95Y-2.0
X1.95Y-2.75
X1.95Y-3.8
X1.95Y-4.45
X2.05Y-3.5
X2.05Y-3.8
X2.05Y-4.45
X2.1Y-1.05
X2.1Y-2.75
X2.3Y-1.05
X2.3Y-2.75
X2.5Y-2.75
X2.5Y-3.45
X2.6Y-2.0
X2.6Y-2.75
X2.65Y-1.1
X2.7Y-2.0
X2.7Y-3.45
X2.75Y-1.1
X2.95Y-2.75
X3.0Y-1.0
X3.1Y-2.0
X3.15Y-2.75
X3.2Y-1.0
X3.3Y-2.0
X3.3Y-2.75
X3.35Y-3.65
X3.4Y-2.75
X3.45Y-3.65
X3.5Y-3.45
X3.55Y-1.1
X3.55Y-2.0
X3.65Y-1.1
X3.65Y-2.0
X3.7Y-3.45
X3.8Y-1.05
X3.85Y-2.0
X4.0Y-1.05
X4.0Y-2.75
X4.05Y-2.0
X4.2Y-2.75
X4.35Y-1.1
X4.35Y-2.85
X4.35Y-4.4
X4.45Y-1.1
X4.45Y-2.85
X4.45Y-4.4
X4.55Y-2.0
X4.65Y-1.05
X4.65Y-2.0
X4.85Y-1.05
X5.0Y-1.05
X5.15Y-2.0
X5.15Y-2.6
X5.2Y-1.05
X5.2Y-2.25
X5.2Y-2.85
X5.3Y-2.25
X5.3Y-2.85
X5.3Y-3.25
X5.3Y-3.45
X5.35Y-1.1
X5.35Y-2.0
X5.35Y-2.6
X5.45Y-1.1
T5
X4.35Y-3.45
X4.35Y-3.55
X4.35Y-3.65
X4.6Y-3.35
X4.6Y-3.45
X4.6Y-3.55
X4.6Y-3.7
X4.6Y-3.8
X4.6Y-3.9
X4.6Y-4.0
X4.6Y-4.1
X4.8Y-3.4
X4.8Y-3.5
X4.8Y-3.6
X4.8Y-3.7
X4.8Y-3.8
X4.8Y-3.9
X4.8Y-4.0
X4.8Y-4.1
X4.8Y-4.2
X4.8Y-4.3
X4.8Y-4.4
X4.8Y-4.5
X4.9Y-3.4
X4.9Y-3.5
X4.9Y-3.6
X4.9Y-3.7
X4.9Y-3.8
X4.9Y-3.9
X4.9Y-4.0
X4.9Y-4.1
X4.9Y-4.2
X4.9Y-4.3
X4.9Y-4.4
X4.9Y-4.5
X6.25Y-2.15
X6.25Y-2.25
T6
X1.6Y-1.4
X1.6Y-1.5
X1.6Y-1.6
X1.6Y-3.65
X1.6Y-3.75
X1.6Y-3.85
X5.65Y-1.4
X5.65Y-1.5
X5.65Y-1.6
X5.65Y-3.65
X5.65Y-3.75
X5.65Y-3.85
T7
X1.1914Y-0.5766
X1.1914Y-0.7734
X1.2539Y-1.5266
X1.2539Y-1.7234
X1.2539Y-2.2766
X1.2539Y-2.4734
X1.2539Y-3.0266
X1.2539Y-3.2234
X1.2539Y-3.8766
X1.2539Y-4.0734
X1.2539Y-4.4266
X1.2539Y-4.6234
X1.6836Y-0.5766
X1.6836Y-0.7734
X1.7461Y-1.5266
X1.7461Y-1.7234
X1.7461Y-2.2766
X1.7461Y-2.4734
X1.7461Y-3.0266
X1.7461Y-3.2234
X1.7461Y-3.8766
X1.7461Y-4.0734
X1.7461Y-4.4266
X1.7461Y-4.6234
X2.0039Y-1.5266
X2.0039Y-1.7234
X2.0039Y-2.2766
X2.0039Y-2.4734
X2.0039Y-3.0266
X2.0039Y-3.2234
X2.0664Y-0.5766
X2.0664Y-0.7734
X2.4961Y-1.5266
X2.4961Y-1.7234
X2.4961Y-2.2766
X2.4961Y-2.4734
X2.4961Y-3.0266
X2.4961Y-3.2234
X2.5586Y-0.5766
X2.5586Y-0.7734
X2.7539Y-1.5266
X2.7539Y-1.7234
X2.7539Y-2.2766
X2.7539Y-2.4734
X2.7539Y-3.0266
X2.7539Y-3.2234
X2.9414Y-0.5766
X2.9414Y-0.7734
X3.2461Y-1.5266
X3.2461Y-1.7234
X3.2461Y-2.2766
X3.2461Y-2.4734
X3.2461Y-3.0266
X3.2461Y-3.2234
X3.4336Y-0.5766
X3.4336Y-0.7734
X3.5039Y-3.0266
X3.5039Y-3.2234
X3.8164Y-0.5766
X3.8164Y-0.7734
X3.8789Y-1.5266
X3.8789Y-1.7234
X3.8789Y-2.2766
X3.8789Y-2.4734
X3.9961Y-3.0266
X3.9961Y-3.2234
X4.3086Y-0.5766
X4.3086Y-0.7734
X4.3711Y-1.5266
X4.3711Y-1.7234
X4.3711Y-2.2766
X4.3711Y-2.4734
X4.6914Y-0.5766
X4.6914Y-0.7734
X5.1836Y-0.5766
X5.1836Y-0.7734
X5.4739Y-1.7766
X5.4739Y-1.9734
X5.4739Y-2.5016
X5.4739Y-2.6984
X5.4739Y-3.0516
X5.4739Y-3.2484
X5.5664Y-0.5766
X5.5664Y-0.7734
X5.9661Y-1.7766
X5.9661Y-1.9734
X5.9661Y-2.5016
X5.9661Y-2.6984
X5.9661Y-3.0516
X5.9661Y-3.2484
X6.0586Y-0.5766
X6.0586Y-0.7734
T0
M30
